<svg xmlns="http://www.w3.org/2000/svg" id="Layer_2" viewBox="0 0 312.24 590.25"><defs><style>.cls-1{fill:#c6d4ff;}.cls-2{fill:none;}</style></defs><g id="Layer_1-2"><path class="cls-1" d="M30.82,145.2c0-24.21,20.12-42.69,44.32-42.69s44.32,18.48,44.32,42.69-20.12,42.69-44.32,42.69-44.32-18.48-44.32-42.69"></path><path class="cls-1" d="M97.88,145.2c0-13.58-10.47-22.73-22.74-22.73s-22.73,9.16-22.73,22.73,10.47,22.74,22.73,22.74,22.74-9.16,22.74-22.74"></path><path class="cls-1" d="M97.88,266.91c0-13.58-10.47-22.74-22.74-22.74s-22.73,9.16-22.73,22.74,10.47,22.74,22.73,22.74,22.74-9.16,22.74-22.74"></path><path class="cls-1" d="M130.05,202.09c0-24.21,20.12-42.69,44.32-42.69s44.32,18.48,44.32,42.69-20.12,42.69-44.32,42.69-44.32-18.48-44.32-42.69"></path><path class="cls-1" d="M197.11,73.75c0-13.58-10.47-22.73-22.74-22.73s-22.73,9.16-22.73,22.73,10.47,22.74,22.73,22.74,22.74-9.16,22.74-22.74"></path><path class="cls-1" d="M102.68,13.8c0-6.71-5.18-11.24-11.24-11.24s-11.24,4.53-11.24,11.24,5.18,11.24,11.24,11.24,11.24-4.53,11.24-11.24"></path><path class="cls-1" d="M138.4,85.24c0-6.71-5.18-11.24-11.24-11.24s-11.24,4.53-11.24,11.24,5.18,11.24,11.24,11.24,11.24-4.53,11.24-11.24"></path><path class="cls-1" d="M219.78,415.84c0-42-32.39-70.34-70.34-70.34s-70.34,28.34-70.34,70.34,32.39,70.34,70.34,70.34,70.34-28.34,70.34-70.34"></path><path class="cls-1" d="M19.43,458.17c0-74.9,62.24-132.08,137.14-132.08s137.14,57.18,137.14,132.08-62.25,132.08-137.14,132.08S19.43,533.06,19.43,458.17"></path><rect class="cls-2" width="312.24" height="510.32"></rect></g></svg>