<svg xmlns="http://www.w3.org/2000/svg" xmlns:xlink="http://www.w3.org/1999/xlink" width="717" height="1245" xml:space="preserve"><defs><clipPath id="clip0"><rect x="2490" y="13537" width="717" height="1245"></rect></clipPath></defs><g clip-path="url(#clip0)" transform="translate(-2490 -13537)"><path d="M3154.87 14243.1C3080.87 14112.7 2902.24 13853.1 2861.35 13792.5 2859.24 13789.4 2855.83 13787.9 2852.5 13788 2849.15 13787.9 2845.76 13789.3 2843.63 13792.5 2802.74 13853 2624.11 14112.7 2550.11 14243.1 2522.02 14292.6 2498.55 14369.8 2498.02 14423.1 2496.01 14621.1 2655.46 14782.2 2852.24 14782L2852.5 14782C2852.5 14782 2852.76 14782 2852.76 14782 3049.54 14782.2 3208.99 14621.1 3206.98 14423.1 3206.45 14369.8 3182.96 14292.6 3154.89 14243.1" fill="#9CB6FF" fill-rule="evenodd"></path><path d="M2684.56 13672.1C2662.64 13633.3 2609.73 13556.3 2597.61 13538.3 2596.98 13537.4 2595.98 13537 2595 13537 2594 13537 2593 13537.4 2592.37 13538.3 2580.25 13556.3 2527.36 13633.3 2505.44 13672.1 2497.12 13686.8 2490.16 13709.6 2490.01 13725.5 2489.42 13784.3 2536.63 13832.1 2594.92 13832L2595 13832C2595 13832 2595.08 13832 2595.08 13832 2653.35 13832.1 2700.58 13784.3 2700 13725.5 2699.84 13709.7 2692.89 13686.8 2684.58 13672.1" fill="#FFFFFF" fill-rule="evenodd"></path></g></svg>