<svg xmlns="http://www.w3.org/2000/svg" id="Layer_2" viewBox="0 0 436.49 151.45"><defs><style>.cls-1{fill:#0e2050;}</style></defs><g id="Layer_1-2"><g><path class="cls-1" d="M34.74,88.09c0-4.48-3.3-7.37-8.4-7.37h-7.9v25.37h5.25v-10.62h1l6.23,10.56,.04,.06h5.82l-6.62-11.26c2.92-1.13,4.59-3.58,4.59-6.74Zm-5.25,0c0,1.85-1.17,2.75-3.57,2.75h-2.23v-5.49h2.23c2.4,0,3.57,.9,3.57,2.75Z"></path><path class="cls-1" d="M62.77,93.4c0-7.16-5.43-12.56-12.62-12.56s-12.62,5.4-12.62,12.56,5.43,12.56,12.62,12.56,12.62-5.4,12.62-12.56Zm-19.22,0c0-4.25,2.65-7.1,6.6-7.1s6.6,2.85,6.6,7.1-2.65,7.1-6.6,7.1-6.6-2.85-6.6-7.1Z"></path><path class="cls-1" d="M430.69,61.93c-3.16,0-5.77,2.43-5.77,5.63s2.57,5.73,5.77,5.73,5.8-2.53,5.8-5.73-2.53-5.63-5.8-5.63Zm0,10.34c-2.36,0-4.57-1.9-4.57-4.71,0-2.53,2-4.64,4.54-4.64s4.5,2.11,4.5,4.68-1.93,4.68-4.47,4.68Z"></path><path class="cls-1" d="M432.94,69.18c-.14-.77-.46-1.27-.98-1.44v-.11c.63-.18,1.16-.63,1.16-1.37,0-1.02-.74-1.69-2.5-1.69-.81,0-1.48,.11-2.04,.18v5.87h1.13v-2.46c1.27,0,1.79,0,2,.95,.18,.77,.28,1.3,.46,1.51h1.2c-.18-.21-.28-.56-.46-1.44h.04Zm-3.23-1.86v-1.79s.42-.07,.81-.07c1.02,0,1.41,.42,1.41,.95,0,.91-1.13,.91-2.21,.91Z"></path><polygon class="cls-1" points="177.83 91.15 165.59 61.77 159.23 61.77 146.98 91.15 135.08 61.77 119.65 61.77 144.49 117.8 148.12 117.8 162.41 83.78 176.7 117.8 180.33 117.8 205.17 61.77 189.74 61.77 177.83 91.15"></polygon><path class="cls-1" d="M298.73,106.8c-3.4,0-6.12-1.93-6.12-6.92v-25.41h15.2v-12.7h-15.2v-16.11l-14.97,6.81v9.3h-9.3v12.7h9.3v26.09c0,13.27,8.62,18.83,17.47,18.83,5.67,0,8.17-.68,12.93-2.84l1.02-13.04h-1.7c-3.63,2.72-6.24,3.29-8.62,3.29Z"></path><path class="cls-1" d="M342.63,60.19c-16.22,0-28.92,12.7-28.92,29.15s13.38,30.06,30.4,30.06c7.49,0,14.97-1.7,22.23-5.9l.57-14.18h-1.59c-6.69,5.78-13.38,7.37-20.19,7.37-8.73,0-15.42-4.42-17.13-12.93h42.99v-4.42c0-15.08-9.3-29.15-28.35-29.15Zm-14.29,23.36c2.04-7.6,7.71-11.8,14.29-11.8,7.15,0,12.59,4.88,13.38,11.8h-27.67Z"></path><path class="cls-1" d="M410.11,60.19c-5.44,0-10.89,2.61-14.4,7.15v-5.56h-14.97v56.03h14.97v-30.51c0-9.3,6.01-13.27,12.48-13.27,3.86,0,7.6,1.81,9.87,4.54h2.16l-1.02-15.77c-2.38-1.7-4.76-2.61-9.07-2.61Z"></path><path class="cls-1" d="M96.22,68.58C85.63,49.95,61.15,14.27,52.62,1.77c-2.72-3.98-5.97,0-5.97,0L10.59,56.19c-.19,.27-.27,.57-.27,.88s.11,.61,.27,.88c.27,.42,.76,.69,1.3,.69,.23,0,.46-.08,.65-.15,6.54-3.06,14.11-4.4,21.99-3.48,18.92,2.29,33.54,17.86,33.46,36.92h13.71c.96,1.19,2.29,2.55,3.15,3.85,.04,.06,.08,.11,.12,.17l-5.13,6.35c5.34,.96,8.73,4.43,8.73,10.37,0,7.49-5.01,11.87-12.6,11.87-3.86,0-7.01-.96-8.92-1.96l-1.44-1.48,3.13-4.27c2.62,1.64,3.42,2.23,7,2.23,3.29,0,6.35-1.78,6.35-6.17,0-3.61-2.39-6.26-6.82-6.26-1.29,0-2.39,.14-3.53,.37l-.67-1.42,6.35-8.17h-9.85c-2.8,18.15-18.95,31.37-38,31.37-10.4,0-19.92-3.94-26.88-10.48-.27-.27-.69-.46-1.11-.46-.88,0-1.57,.69-1.57,1.57,0,.31,.08,.57,.23,.84,8.8,18.43,27.57,31.17,49.33,31.21,30.36,0,54.99-24.74,54.69-55.18-.08-8.18-3.71-20.04-8.03-27.65v-.04Z"></path><path class="cls-1" d="M264.04,83.02v-.11c-1.9-8.1-7.31-14.74-14.52-18.55-4.33-2.28-9.29-3.58-14.52-3.58h-1.75c-7.17,0-13.62,2.84-18.47,7.54-5.9,5.19-9.59,12.65-9.59,21.2,0,6.64,2.24,12.65,6.01,17.43,5.11,7.24,13.21,11.31,21.16,11.31h1.42c7.61-.3,11.83-4.55,15.49-8.02,.07-.07,.22,0,.22,.11v7.46c0,.37,.3,.71,.71,.71h12.39c1.16,0,2.13-.93,2.16-2.09,.22-5.93,.78-23.06-.07-29.48-.52-3.92-.34-2.65-.63-3.92Zm-15.34,13.62c-2.5,5.08-7.73,8.21-13.55,8.25h-.19c-8.25,0-15.3-6.16-15.3-15.3s7.05-15.3,15.3-15.3h.19c5.82,.07,11.01,3.17,13.55,8.25,.97,2.13,1.49,4.52,1.49,7.05s-.52,4.93-1.49,7.05Z"></path></g></g></svg>